<?xml version="1.0" encoding="UTF-8" standalone="no"?>
<!DOCTYPE svg PUBLIC "-//W3C//DTD SVG 1.1//EN" "http://www.w3.org/Graphics/SVG/1.1/DTD/svg11.dtd">
<svg width="100%" height="100%" viewBox="0 0 512 512" version="1.1" xmlns="http://www.w3.org/2000/svg" xmlns:xlink="http://www.w3.org/1999/xlink" xml:space="preserve" xmlns:serif="http://www.serif.com/" style="fill-rule:evenodd;clip-rule:evenodd;stroke-linejoin:round;stroke-miterlimit:2;">
    <g transform="matrix(1.20519,0,0,1.20519,-52.5299,-100.545)">
        <path d="M256,105C202.322,105 159,148.322 159,202C159,255.348 201.792,298.46 255.012,298.988L208,346L208,362L236.8,362L224,490L288,490L275.2,362L304,362L304,346L256.988,298.988C310.208,298.46 353,255.348 353,202C353,148.322 309.678,105 256,105ZM256,122.334C299.892,122.334 335.666,158.108 335.666,202C335.666,245.892 299.892,281.666 256,281.666C212.108,281.666 176.334,245.892 176.334,202C176.334,158.108 212.108,122.334 256,122.334ZM256,140.332C221.835,140.332 194.332,167.835 194.332,202C194.332,236.165 221.835,263.668 256,263.668C290.165,263.668 317.668,236.165 317.668,202C317.668,167.835 290.165,140.332 256,140.332ZM256,157.668C280.378,157.668 300.332,177.622 300.332,202C300.332,226.378 280.378,246.332 256,246.332C231.622,246.332 211.668,226.378 211.668,202C211.668,177.622 231.622,157.668 256,157.668ZM256,175.666C241.35,175.666 229.666,187.349 229.666,202C229.666,216.65 241.349,228.334 256,228.334C270.65,228.334 282.334,216.651 282.334,202C282.334,187.35 270.651,175.666 256,175.666Z" style="fill:white;fill-rule:nonzero;"/>
    </g>
</svg>
